<mxfile host="app.diagrams.net" agent="Mozilla/5.0 (Windows NT 10.0; Win64; x64) AppleWebKit/537.36 (KHTML, like Gecko) Chrome/129.0.0.0 Safari/537.36" version="24.7.16">
  <diagram name="Page-1" id="4m_KD0_L7Jd3Kkvv6mde">
    <mxGraphModel dx="1216" dy="492" grid="1" gridSize="10" guides="1" tooltips="1" connect="1" arrows="1" fold="1" page="1" pageScale="1" pageWidth="850" pageHeight="1100" math="0" shadow="0">
      <root>
        <mxCell id="0" />
        <mxCell id="1" parent="0" />
        <mxCell id="7fSCyYOgpmtAzSr5ejGC-1" value="" style="rounded=0;whiteSpace=wrap;html=1;" vertex="1" parent="1">
          <mxGeometry x="246" y="156.5" width="180" height="340" as="geometry" />
        </mxCell>
        <mxCell id="7fSCyYOgpmtAzSr5ejGC-2" value="" style="rounded=0;whiteSpace=wrap;html=1;" vertex="1" parent="1">
          <mxGeometry x="45" y="156.5" width="180" height="340" as="geometry" />
        </mxCell>
        <mxCell id="7fSCyYOgpmtAzSr5ejGC-3" style="edgeStyle=orthogonalEdgeStyle;rounded=0;orthogonalLoop=1;jettySize=auto;html=1;entryX=0.5;entryY=0;entryDx=0;entryDy=0;entryPerimeter=0;" edge="1" parent="1" source="7fSCyYOgpmtAzSr5ejGC-4" target="7fSCyYOgpmtAzSr5ejGC-19">
          <mxGeometry relative="1" as="geometry" />
        </mxCell>
        <mxCell id="7fSCyYOgpmtAzSr5ejGC-4" value="" style="ellipse;whiteSpace=wrap;html=1;" vertex="1" parent="1">
          <mxGeometry x="270" y="191" width="130" height="80" as="geometry" />
        </mxCell>
        <mxCell id="7fSCyYOgpmtAzSr5ejGC-5" style="edgeStyle=orthogonalEdgeStyle;rounded=0;orthogonalLoop=1;jettySize=auto;html=1;entryX=0.5;entryY=1;entryDx=0;entryDy=0;entryPerimeter=0;" edge="1" parent="1" source="7fSCyYOgpmtAzSr5ejGC-6" target="7fSCyYOgpmtAzSr5ejGC-19">
          <mxGeometry relative="1" as="geometry">
            <Array as="points">
              <mxPoint x="440" y="326" />
              <mxPoint x="440" y="378" />
              <mxPoint x="520" y="378" />
            </Array>
          </mxGeometry>
        </mxCell>
        <mxCell id="7fSCyYOgpmtAzSr5ejGC-6" value="" style="ellipse;whiteSpace=wrap;html=1;fontSize=16;" vertex="1" parent="1">
          <mxGeometry x="270" y="286.5" width="130" height="80" as="geometry" />
        </mxCell>
        <mxCell id="7fSCyYOgpmtAzSr5ejGC-7" value="&lt;font style=&quot;font-size: 16px;&quot;&gt;FastAPI&lt;/font&gt;" style="text;html=1;align=center;verticalAlign=middle;resizable=0;points=[];autosize=1;strokeColor=none;fillColor=none;" vertex="1" parent="1">
          <mxGeometry x="40" y="156.5" width="80" height="30" as="geometry" />
        </mxCell>
        <mxCell id="7fSCyYOgpmtAzSr5ejGC-8" style="edgeStyle=orthogonalEdgeStyle;rounded=0;orthogonalLoop=1;jettySize=auto;html=1;entryX=0;entryY=0.5;entryDx=0;entryDy=0;" edge="1" parent="1" source="7fSCyYOgpmtAzSr5ejGC-9" target="7fSCyYOgpmtAzSr5ejGC-4">
          <mxGeometry relative="1" as="geometry" />
        </mxCell>
        <mxCell id="7fSCyYOgpmtAzSr5ejGC-9" value="" style="sketch=0;outlineConnect=0;fontColor=#232F3E;gradientColor=none;fillColor=#E7157B;strokeColor=none;dashed=0;verticalLabelPosition=bottom;verticalAlign=top;align=center;html=1;fontSize=12;fontStyle=0;aspect=fixed;pointerEvents=1;shape=mxgraph.aws4.endpoint;" vertex="1" parent="1">
          <mxGeometry x="96" y="230" width="78" height="78" as="geometry" />
        </mxCell>
        <mxCell id="7fSCyYOgpmtAzSr5ejGC-10" style="edgeStyle=orthogonalEdgeStyle;rounded=0;orthogonalLoop=1;jettySize=auto;html=1;entryX=0;entryY=0.5;entryDx=0;entryDy=0;" edge="1" parent="1" source="7fSCyYOgpmtAzSr5ejGC-11" target="7fSCyYOgpmtAzSr5ejGC-6">
          <mxGeometry relative="1" as="geometry">
            <Array as="points">
              <mxPoint x="230" y="407" />
              <mxPoint x="230" y="326" />
            </Array>
          </mxGeometry>
        </mxCell>
        <mxCell id="7fSCyYOgpmtAzSr5ejGC-11" value="" style="sketch=0;outlineConnect=0;fontColor=#232F3E;gradientColor=none;fillColor=#E7157B;strokeColor=none;dashed=0;verticalLabelPosition=bottom;verticalAlign=top;align=center;html=1;fontSize=12;fontStyle=0;aspect=fixed;pointerEvents=1;shape=mxgraph.aws4.endpoint;" vertex="1" parent="1">
          <mxGeometry x="96" y="368" width="78" height="78" as="geometry" />
        </mxCell>
        <mxCell id="7fSCyYOgpmtAzSr5ejGC-12" value="first endpoint" style="text;html=1;align=center;verticalAlign=middle;resizable=0;points=[];autosize=1;strokeColor=none;fillColor=none;fontSize=16;" vertex="1" parent="1">
          <mxGeometry x="75" y="191" width="120" height="30" as="geometry" />
        </mxCell>
        <mxCell id="7fSCyYOgpmtAzSr5ejGC-13" value="second endpoint" style="text;html=1;align=center;verticalAlign=middle;resizable=0;points=[];autosize=1;strokeColor=none;fillColor=none;fontSize=16;" vertex="1" parent="1">
          <mxGeometry x="65" y="460" width="140" height="30" as="geometry" />
        </mxCell>
        <mxCell id="7fSCyYOgpmtAzSr5ejGC-34" style="edgeStyle=orthogonalEdgeStyle;rounded=0;orthogonalLoop=1;jettySize=auto;html=1;" edge="1" parent="1" source="7fSCyYOgpmtAzSr5ejGC-15" target="7fSCyYOgpmtAzSr5ejGC-33">
          <mxGeometry relative="1" as="geometry" />
        </mxCell>
        <mxCell id="7fSCyYOgpmtAzSr5ejGC-15" value="" style="dashed=0;outlineConnect=0;html=1;align=center;labelPosition=center;verticalLabelPosition=bottom;verticalAlign=top;shape=mxgraph.webicons.mongodb;gradientColor=#DFDEDE" vertex="1" parent="1">
          <mxGeometry x="510" y="412" width="70" height="78" as="geometry" />
        </mxCell>
        <mxCell id="7fSCyYOgpmtAzSr5ejGC-18" style="edgeStyle=orthogonalEdgeStyle;rounded=0;orthogonalLoop=1;jettySize=auto;html=1;exitX=1;exitY=0.75;exitDx=0;exitDy=0;exitPerimeter=0;" edge="1" parent="1" source="7fSCyYOgpmtAzSr5ejGC-19" target="7fSCyYOgpmtAzSr5ejGC-15">
          <mxGeometry relative="1" as="geometry" />
        </mxCell>
        <mxCell id="7fSCyYOgpmtAzSr5ejGC-19" value="&lt;font style=&quot;font-size: 16px;&quot;&gt;consumer.py&lt;/font&gt;" style="points=[[0.25,0,0],[0.5,0,0],[0.75,0,0],[1,0.25,0],[1,0.5,0],[1,0.75,0],[0.75,1,0],[0.5,1,0],[0.25,1,0],[0,0.75,0],[0,0.5,0],[0,0.25,0]];shape=mxgraph.bpmn.task;whiteSpace=wrap;rectStyle=rounded;size=10;html=1;container=1;expand=0;collapsible=0;taskMarker=script;" vertex="1" parent="1">
          <mxGeometry x="460" y="280" width="120" height="78" as="geometry" />
        </mxCell>
        <mxCell id="7fSCyYOgpmtAzSr5ejGC-20" value="Kafka" style="text;html=1;align=center;verticalAlign=middle;resizable=0;points=[];autosize=1;strokeColor=none;fillColor=none;fontSize=16;" vertex="1" parent="1">
          <mxGeometry x="251" y="156.5" width="60" height="30" as="geometry" />
        </mxCell>
        <mxCell id="7fSCyYOgpmtAzSr5ejGC-21" value="PostgreSQL" style="strokeWidth=2;html=1;shape=mxgraph.flowchart.database;whiteSpace=wrap;fontSize=16;" vertex="1" parent="1">
          <mxGeometry x="680" y="278.5" width="100" height="81" as="geometry" />
        </mxCell>
        <mxCell id="7fSCyYOgpmtAzSr5ejGC-22" value="&lt;b&gt;MongoDB Collections&lt;/b&gt;" style="text;html=1;align=center;verticalAlign=middle;resizable=0;points=[];autosize=1;strokeColor=none;fillColor=none;fontSize=16;" vertex="1" parent="1">
          <mxGeometry x="450" y="496.5" width="190" height="30" as="geometry" />
        </mxCell>
        <mxCell id="7fSCyYOgpmtAzSr5ejGC-23" value="&lt;b&gt;&lt;font style=&quot;font-size: 35px;&quot;&gt;Data Pipeline&lt;/font&gt;&lt;/b&gt;" style="text;html=1;align=center;verticalAlign=middle;resizable=0;points=[];autosize=1;strokeColor=none;fillColor=none;" vertex="1" parent="1">
          <mxGeometry x="305" y="580" width="240" height="60" as="geometry" />
        </mxCell>
        <mxCell id="7fSCyYOgpmtAzSr5ejGC-24" style="edgeStyle=orthogonalEdgeStyle;rounded=0;orthogonalLoop=1;jettySize=auto;html=1;entryX=0;entryY=0.5;entryDx=0;entryDy=0;entryPerimeter=0;" edge="1" parent="1" source="7fSCyYOgpmtAzSr5ejGC-19" target="7fSCyYOgpmtAzSr5ejGC-21">
          <mxGeometry relative="1" as="geometry" />
        </mxCell>
        <mxCell id="7fSCyYOgpmtAzSr5ejGC-25" value="&lt;font style=&quot;font-size: 16px;&quot;&gt;Topic 1&lt;/font&gt;" style="text;html=1;align=center;verticalAlign=middle;resizable=0;points=[];autosize=1;strokeColor=none;fillColor=none;" vertex="1" parent="1">
          <mxGeometry x="300" y="216" width="70" height="30" as="geometry" />
        </mxCell>
        <mxCell id="7fSCyYOgpmtAzSr5ejGC-26" value="&lt;font style=&quot;font-size: 16px;&quot;&gt;Topic 2&lt;/font&gt;" style="text;html=1;align=center;verticalAlign=middle;resizable=0;points=[];autosize=1;strokeColor=none;fillColor=none;" vertex="1" parent="1">
          <mxGeometry x="301" y="311.5" width="70" height="30" as="geometry" />
        </mxCell>
        <mxCell id="7fSCyYOgpmtAzSr5ejGC-27" value="" style="ellipse;whiteSpace=wrap;html=1;" vertex="1" parent="1">
          <mxGeometry x="271" y="380" width="130" height="80" as="geometry" />
        </mxCell>
        <mxCell id="7fSCyYOgpmtAzSr5ejGC-28" value="" style="endArrow=classic;html=1;rounded=0;" edge="1" parent="1">
          <mxGeometry width="50" height="50" relative="1" as="geometry">
            <mxPoint x="190" y="550" as="sourcePoint" />
            <mxPoint x="320" y="458" as="targetPoint" />
          </mxGeometry>
        </mxCell>
        <mxCell id="7fSCyYOgpmtAzSr5ejGC-29" value="&lt;font style=&quot;font-size: 16px;&quot;&gt;Topic N&lt;/font&gt;" style="text;html=1;align=center;verticalAlign=middle;resizable=0;points=[];autosize=1;strokeColor=none;fillColor=none;" vertex="1" parent="1">
          <mxGeometry x="295" y="405" width="80" height="30" as="geometry" />
        </mxCell>
        <mxCell id="7fSCyYOgpmtAzSr5ejGC-30" value="" style="endArrow=none;dashed=1;html=1;dashPattern=1 3;strokeWidth=2;rounded=0;" edge="1" parent="1">
          <mxGeometry width="50" height="50" relative="1" as="geometry">
            <mxPoint x="40" y="550" as="sourcePoint" />
            <mxPoint x="190" y="550" as="targetPoint" />
          </mxGeometry>
        </mxCell>
        <mxCell id="7fSCyYOgpmtAzSr5ejGC-32" value="Redis&lt;div&gt;Cache&lt;/div&gt;" style="rounded=0;whiteSpace=wrap;html=1;" vertex="1" parent="1">
          <mxGeometry x="174" y="319.5" width="40" height="40" as="geometry" />
        </mxCell>
        <mxCell id="7fSCyYOgpmtAzSr5ejGC-33" value="" style="shape=image;html=1;verticalAlign=top;verticalLabelPosition=bottom;labelBackgroundColor=#ffffff;imageAspect=0;aspect=fixed;image=https://cdn3.iconfinder.com/data/icons/fintech-icon/128/11_Data_Visualization-128.png" vertex="1" parent="1">
          <mxGeometry x="680" y="387" width="128" height="128" as="geometry" />
        </mxCell>
        <mxCell id="7fSCyYOgpmtAzSr5ejGC-35" value="&lt;b&gt;Realtime Visualizations&lt;/b&gt;" style="text;html=1;align=center;verticalAlign=middle;resizable=0;points=[];autosize=1;strokeColor=none;fillColor=none;fontSize=16;" vertex="1" parent="1">
          <mxGeometry x="644" y="496.5" width="200" height="30" as="geometry" />
        </mxCell>
      </root>
    </mxGraphModel>
  </diagram>
</mxfile>
